<mxfile host="app.diagrams.net" agent="Mozilla/5.0 (Macintosh; Intel Mac OS X 10_15_7) AppleWebKit/537.36 (KHTML, like Gecko) Chrome/137.0.0.0 Safari/537.36" version="28.0.7">
  <diagram name="NoSQL Reference ERD" id="cYj2N5WvbeULkc-MPjyz">
    <mxGraphModel dx="764" dy="780" grid="1" gridSize="10" guides="1" tooltips="1" connect="1" arrows="1" fold="1" page="1" pageScale="1" pageWidth="827" pageHeight="1169" math="0" shadow="0">
      <root>
        <mxCell id="0" />
        <mxCell id="1" parent="0" />
        <mxCell id="HIDU1k-n3vv1bSB7XRwQ-1" value="users" style="swimlane;childLayout=stackLayout;horizontal=1;" vertex="1" parent="1">
          <mxGeometry x="40" y="80" width="160" height="160" as="geometry" />
        </mxCell>
        <mxCell id="HIDU1k-n3vv1bSB7XRwQ-2" value="• _id&#xa;• email&#xa;• name&#xa;• provider&#xa;• provider_id&#xa;• created_at" style="text;" vertex="1" parent="HIDU1k-n3vv1bSB7XRwQ-1">
          <mxGeometry y="23" width="160" height="137" as="geometry" />
        </mxCell>
        <mxCell id="HIDU1k-n3vv1bSB7XRwQ-3" value="drawer_items" style="swimlane;childLayout=stackLayout;horizontal=1;" vertex="1" parent="1">
          <mxGeometry x="240" y="80" width="160" height="160" as="geometry" />
        </mxCell>
        <mxCell id="HIDU1k-n3vv1bSB7XRwQ-4" value="• _id&#xa;• user_id (ref)&#xa;• title&#xa;• text&#xa;• color&#xa;• order&#xa;• created_at" style="text;" vertex="1" parent="HIDU1k-n3vv1bSB7XRwQ-3">
          <mxGeometry y="23" width="160" height="137" as="geometry" />
        </mxCell>
        <mxCell id="HIDU1k-n3vv1bSB7XRwQ-5" style="endArrow=block;endFill=1;strokeColor=#000000;" edge="1" parent="1" source="HIDU1k-n3vv1bSB7XRwQ-3" target="HIDU1k-n3vv1bSB7XRwQ-1">
          <mxGeometry relative="1" as="geometry" />
        </mxCell>
        <mxCell id="HIDU1k-n3vv1bSB7XRwQ-8" value="&lt;code data-start=&quot;853&quot; data-end=&quot;875&quot;&gt;&lt;font style=&quot;font-size: 10px;&quot;&gt;&lt;code style=&quot;&quot; data-end=&quot;820&quot; data-start=&quot;809&quot;&gt;&lt;span style=&quot;font-family: Helvetica; text-wrap-mode: nowrap;&quot;&gt;•&amp;nbsp;&lt;/span&gt;`_id`&lt;/code&gt;는 기본 ObjectId&lt;br&gt;&lt;/font&gt;&lt;/code&gt;&lt;div&gt;&lt;font style=&quot;font-size: 10px;&quot;&gt;&lt;code style=&quot;&quot; data-start=&quot;853&quot; data-end=&quot;875&quot;&gt;&lt;span style=&quot;text-wrap-mode: nowrap; background-color: transparent; color: light-dark(rgb(0, 0, 0), rgb(255, 255, 255)); font-family: Helvetica;&quot;&gt;•&amp;nbsp;&lt;/span&gt;`drawer_items.user_id`&lt;/code&gt;는&amp;nbsp;&lt;b style=&quot;&quot;&gt; &lt;/b&gt;`&lt;code style=&quot;&quot; data-start=&quot;890&quot; data-end=&quot;901&quot;&gt;users._id`&lt;/code&gt;를 참조함&lt;/font&gt;&lt;/div&gt;" style="text;html=1;align=left;verticalAlign=top;whiteSpace=wrap;rounded=0;" vertex="1" parent="1">
          <mxGeometry x="414" y="80" width="346" height="160" as="geometry" />
        </mxCell>
      </root>
    </mxGraphModel>
  </diagram>
</mxfile>
